<svg width="186" height="200" viewBox="0 0 186 200" fill="none" xmlns="http://www.w3.org/2000/svg">
<path fill-rule="evenodd" clip-rule="evenodd" d="M13.8988 159.373L75.7718 195.017C87.1989 201.615 98.4348 201.707 110.076 195.017L171.95 159.373C180.757 154.295 185.848 149.046 185.848 134.899V64.5695C185.848 50.7218 180.683 45.6218 172.472 40.9167L110.45 5.1229C98.493 -1.80647 87.0496 -1.60807 75.3987 5.1229L13.451 40.9167C5.16562 45.6218 0 50.7218 0 64.5695V134.899C0 149.046 5.16562 154.295 13.8988 159.373ZM168.403 145.401C171.746 143.554 172.294 138.973 169.481 136.389L124.888 95.4311C121.945 92.7006 118.412 91.3199 114.836 91.3199C111.169 91.3199 107.879 92.5788 104.826 95.3093L74.6152 122.309L62.2763 111.175C59.4668 108.645 56.3779 107.374 53.2459 107.374C50.1515 107.374 47.3835 108.578 44.629 111.108L15.3391 136.438C12.4092 138.972 12.8809 143.645 16.258 145.542L84.9131 184.113C89.4726 186.674 95.0407 186.66 99.5869 184.075L139.789 161.214L168.403 145.401ZM80.8519 79.2787C80.8519 88.119 73.629 95.342 64.8675 95.342C56.0272 95.342 48.8042 88.119 48.8042 79.2787C48.8042 70.5173 56.0272 63.2274 64.8675 63.2274C73.629 63.2274 80.8519 70.5173 80.8519 79.2787Z" fill="white" fill-opacity="0.85"/>
<path d="M168.591 145.279C171.933 143.431 172.481 138.851 169.668 136.267L125.078 95.311C122.134 92.5806 118.601 91.2001 115.026 91.2001C111.359 91.2001 108.069 92.4588 105.017 95.1893L74.8073 122.188L62.469 111.054C59.6597 108.524 56.5709 107.253 53.4392 107.253C50.3449 107.253 47.5771 108.457 44.8227 110.987L15.5344 136.316C12.6046 138.849 13.0762 143.522 16.4532 145.42L85.1048 183.988C89.664 186.549 95.2318 186.535 99.7777 183.95L139.978 161.091L168.591 145.279Z" fill="white" fill-opacity="0.2"/>
<path d="M64.8625 95.313C73.6235 95.313 80.8461 88.0904 80.8461 79.2505C80.8461 70.4895 73.6235 63.2001 64.8625 63.2001C56.0227 63.2001 48.8 70.4895 48.8 79.2505C48.8 88.0904 56.0227 95.313 64.8625 95.313Z" fill="white" fill-opacity="0.2"/>
</svg>
