<svg width="200" height="114" viewBox="0 0 200 114" fill="none" xmlns="http://www.w3.org/2000/svg">
<g clip-path="url(#clip0_147_11)">
<path d="M100.035 88.5696C113.51 88.5696 127.548 111.286 154.356 111.286C180.388 111.286 200 87.6525 200 56.6119C200 5.74785 155.203 0.104126 100.035 0.104126C44.7971 0.104126 0 5.81841 0 56.6119C0 87.6525 19.6119 111.286 45.6437 111.286C72.4514 111.286 86.4902 88.5696 100.035 88.5696ZM100.035 77.2115C79.6472 77.2115 70.3349 99.9276 45.6437 99.9276C24.8324 99.9276 11.358 83.4196 11.358 56.6119C11.358 15.6949 45.9963 11.4621 100.035 11.4621C154.004 11.4621 188.641 15.6244 188.641 56.6119C188.641 83.4196 175.167 99.9276 154.356 99.9276C129.665 99.9276 120.353 77.2115 100.035 77.2115Z" fill="white" fill-opacity="0.85"/>
<path d="M100.035 77.2115C79.6472 77.2115 70.3349 99.9276 45.6437 99.9276C24.8324 99.9276 11.358 83.4197 11.358 56.6119C11.358 15.6949 45.9964 11.4622 100.035 11.4622C154.004 11.4622 188.641 15.6244 188.641 56.6119C188.641 83.4197 175.167 99.9276 154.356 99.9276C129.665 99.9276 120.353 77.2115 100.035 77.2115Z" fill="url(#paint0_linear_147_11)" fill-opacity="0.8"/>
</g>
<defs>
<linearGradient id="paint0_linear_147_11" x1="29.6183" y1="14.5521" x2="166.151" y2="103.407" gradientUnits="userSpaceOnUse">
<stop stop-color="#FF57C6"/>
<stop offset="1" stop-color="#9208FF" stop-opacity="0.8"/>
</linearGradient>
<clipPath id="clip0_147_11">
<rect width="200" height="113.792" fill="white" transform="translate(0 0.104126)"/>
</clipPath>
</defs>
</svg>
